<svg width="18" height="14" viewBox="0 0 18 14" fill="none" xmlns="http://www.w3.org/2000/svg">
<path d="M2.33464 13.6663C1.8763 13.6663 1.48394 13.5031 1.15755 13.1768C0.831163 12.8504 0.667969 12.458 0.667969 11.9997V1.99967C0.667969 1.54134 0.831163 1.14898 1.15755 0.822591C1.48394 0.496202 1.8763 0.333008 2.33464 0.333008H15.668C16.1263 0.333008 16.5187 0.496202 16.8451 0.822591C17.1714 1.14898 17.3346 1.54134 17.3346 1.99967V11.9997C17.3346 12.458 17.1714 12.8504 16.8451 13.1768C16.5187 13.5031 16.1263 13.6663 15.668 13.6663H2.33464ZM9.0013 7.83301L2.33464 3.66634V11.9997H15.668V3.66634L9.0013 7.83301ZM9.0013 6.16634L15.668 1.99967H2.33464L9.0013 6.16634ZM2.33464 3.66634V1.99967V11.9997V3.66634Z" fill="#265873"/>
</svg>
