<svg width="15" height="15" viewBox="0 0 15 15" fill="none" xmlns="http://www.w3.org/2000/svg">
<g clip-path="url(#clip0_1311_54)">
<path d="M5.0004 7.5C5.0004 6.11935 6.11935 4.9998 7.5 4.9998C8.88065 4.9998 10.0002 6.11935 10.0002 7.5C10.0002 8.88065 8.88065 10.0002 7.5 10.0002C6.11935 10.0002 5.0004 8.88065 5.0004 7.5ZM3.64883 7.5C3.64883 9.62702 5.37298 11.3512 7.5 11.3512C9.62702 11.3512 11.3512 9.62702 11.3512 7.5C11.3512 5.37298 9.62702 3.64883 7.5 3.64883C5.37298 3.64883 3.64883 5.37298 3.64883 7.5ZM10.6036 3.49616C10.6036 3.99293 11.0065 4.39641 11.5038 4.39641C12.0006 4.39641 12.4041 3.99293 12.4041 3.49616C12.4041 2.99939 12.0012 2.59653 11.5038 2.59653C11.0065 2.59653 10.6036 2.99939 10.6036 3.49616ZM4.46971 13.6048C3.73849 13.5715 3.34107 13.4497 3.07694 13.3467C2.72678 13.2104 2.47718 13.0481 2.21426 12.7857C1.95194 12.5234 1.78897 12.2738 1.65327 11.9237C1.55028 11.6595 1.42851 11.2621 1.39519 10.5309C1.35884 9.74031 1.35158 9.50283 1.35158 7.5C1.35158 5.49717 1.35945 5.2603 1.39519 4.4691C1.42851 3.73788 1.55089 3.34107 1.65327 3.07633C1.78958 2.72617 1.95194 2.47658 2.21426 2.21365C2.47658 1.95133 2.72617 1.78837 3.07694 1.65267C3.34107 1.54968 3.73849 1.42791 4.46971 1.39459C5.2603 1.35824 5.49778 1.35097 7.5 1.35097C9.50283 1.35097 9.7397 1.35884 10.5309 1.39459C11.2621 1.42791 11.6589 1.55028 11.9237 1.65267C12.2738 1.78837 12.5234 1.95133 12.7863 2.21365C13.0487 2.47597 13.211 2.72617 13.3473 3.07633C13.4503 3.34047 13.5721 3.73788 13.6054 4.4691C13.6418 5.2603 13.649 5.49717 13.649 7.5C13.649 9.50222 13.6418 9.7397 13.6054 10.5309C13.5721 11.2621 13.4497 11.6595 13.3473 11.9237C13.211 12.2738 13.0487 12.5234 12.7863 12.7857C12.524 13.0481 12.2738 13.2104 11.9237 13.3467C11.6595 13.4497 11.2621 13.5715 10.5309 13.6048C9.74031 13.6412 9.50283 13.6484 7.5 13.6484C5.49778 13.6484 5.2603 13.6412 4.46971 13.6048ZM4.40792 0.0454362C3.60945 0.0817851 3.06422 0.208401 2.58744 0.39378C2.09431 0.585218 1.67629 0.842084 1.25889 1.25889C0.842084 1.67569 0.585218 2.0937 0.39378 2.58744C0.208401 3.06422 0.0817851 3.60945 0.0454362 4.40792C0.00848142 5.20759 0 5.46325 0 7.5C0 9.53675 0.00848142 9.79241 0.0454362 10.5921C0.0817851 11.3905 0.208401 11.9358 0.39378 12.4126C0.585218 12.9057 0.841478 13.3243 1.25889 13.7411C1.67569 14.1579 2.0937 14.4142 2.58744 14.6062C3.06482 14.7916 3.60945 14.9182 4.40792 14.9546C5.2082 14.9909 5.46325 15 7.5 15C9.53736 15 9.79241 14.9915 10.5921 14.9546C11.3905 14.9182 11.9358 14.7916 12.4126 14.6062C12.9057 14.4142 13.3237 14.1579 13.7411 13.7411C14.1579 13.3243 14.4142 12.9057 14.6062 12.4126C14.7916 11.9358 14.9188 11.3905 14.9546 10.5921C14.9909 9.7918 14.9994 9.53675 14.9994 7.5C14.9994 5.46325 14.9909 5.20759 14.9546 4.40792C14.9182 3.60945 14.7916 3.06422 14.6062 2.58744C14.4142 2.09431 14.1579 1.67629 13.7411 1.25889C13.3243 0.842084 12.9057 0.585218 12.4132 0.39378C11.9358 0.208401 11.3905 0.0811793 10.5927 0.0454362C9.79301 0.00908724 9.53736 0 7.50061 0C5.46325 0 5.2082 0.00848142 4.40792 0.0454362Z" fill="#0F3B53"/>
</g>
<defs>
<clipPath id="clip0_1311_54">
<rect width="15" height="15" fill="white"/>
</clipPath>
</defs>
</svg>
