<svg width="49" height="49" viewBox="0 0 49 49" fill="none" xmlns="http://www.w3.org/2000/svg">
<path d="M48.4867 22.3625C48.0117 17.375 46.1117 12.625 42.7867 8.82504C41.8367 7.63754 40.6492 6.68754 39.6992 5.73754C35.8992 2.65004 31.3867 0.750038 26.6367 0.512538C25.4492 0.512538 24.0242 0.275038 22.3617 0.512538C17.6117 0.987538 13.0992 2.88754 9.53672 5.73754C8.34922 6.68754 7.16172 7.87504 6.21172 8.82504C2.88672 12.625 0.986719 17.375 0.511719 22.125C0.511719 22.8375 0.511719 23.7875 0.511719 24.5C0.511719 25.45 0.511719 25.925 0.511719 26.6375C0.986719 31.3875 2.64922 35.9 5.73672 39.7C6.68672 40.8875 7.63672 41.8375 8.82422 42.7875C12.6242 46.1125 17.3742 48.0125 22.3617 48.4875C23.0742 48.4875 23.5492 48.4875 24.4992 48.4875C25.2117 48.4875 25.9242 48.4875 26.8742 48.4875C31.8617 48.0125 36.3742 46.1125 40.1742 42.7875C41.3617 41.8375 42.3117 40.65 43.2617 39.7C46.3492 35.9 48.0117 31.625 48.4867 26.875C48.4867 25.925 48.4867 25.2125 48.4867 24.5C48.4867 23.55 48.4867 23.075 48.4867 22.3625ZM26.8742 5.50004C30.1992 5.97504 33.2867 7.16254 35.8992 9.06254L24.4992 20.7L21.6492 17.85C24.4992 14.2875 26.3992 10.0125 26.8742 5.50004ZM24.4992 27.5875L27.5867 30.675C24.4992 34.2375 22.5992 38.75 22.1242 43.5C18.5617 43.025 15.2367 41.6 12.6242 39.4625L24.4992 27.5875ZM21.8867 5.50004C21.4117 8.58754 20.2242 11.675 18.3242 14.2875L13.0992 9.06254C15.7117 7.16254 18.5617 5.97504 21.8867 5.50004ZM9.53672 12.625L14.7617 17.85C12.1492 19.9875 9.06172 21.4125 5.49922 21.8875C5.97422 18.5625 7.39922 15.2375 9.53672 12.625ZM5.49922 26.875C10.2492 26.4 14.5242 24.5 18.3242 21.4125L20.9367 24.025L9.06172 35.9C7.16172 33.2875 5.97422 30.2 5.49922 26.875ZM27.1117 43.5C27.5867 40.175 29.0117 36.85 31.1492 34.2375L36.3742 39.4625C33.7617 41.6 30.4367 43.025 27.1117 43.5ZM39.9367 35.9L34.7117 30.675C37.3242 28.775 40.4117 27.5875 43.4992 27.1125C43.0242 30.4375 41.8367 33.2875 39.9367 35.9ZM31.1492 27.35L28.0617 24.2625L39.4617 12.625C41.5992 15.475 43.0242 18.5625 43.4992 22.125C38.9867 22.6 34.7117 24.5 31.1492 27.35Z" fill="#0F3B54"/>
</svg>
