<svg width="16" height="15" viewBox="0 0 16 15" fill="none" xmlns="http://www.w3.org/2000/svg">
<g clip-path="url(#clip0_1311_56)">
<path d="M0 1.74242C0 1.23736 0.176772 0.820696 0.530302 0.492423C0.883832 0.164136 1.34344 0 1.90909 0C2.46465 0 2.91413 0.161606 3.25757 0.484848C3.6111 0.818181 3.78787 1.25251 3.78787 1.78788C3.78787 2.27272 3.61616 2.67675 3.27272 2.99999C2.91919 3.33333 2.45454 3.49999 1.87878 3.49999H1.86363C1.30807 3.49999 0.85859 3.33333 0.515151 2.99999C0.171712 2.66666 0 2.24747 0 1.74242ZM0.196969 15V4.87878H3.5606V15H0.196969ZM5.42423 15H8.78786V9.34847C8.78786 8.99492 8.82827 8.7222 8.90908 8.53029C9.05049 8.18685 9.26514 7.89644 9.55301 7.65908C9.84089 7.4217 10.202 7.30302 10.6363 7.30302C11.7677 7.30302 12.3333 8.06564 12.3333 9.59089V15H15.6969V9.19695C15.6969 7.702 15.3434 6.56817 14.6363 5.79544C13.9293 5.02272 12.9949 4.63636 11.8333 4.63636C10.5303 4.63636 9.51514 5.19696 8.78786 6.31817V6.34847H8.77271L8.78786 6.31817V4.87878H5.42423C5.44443 5.20201 5.45454 6.20705 5.45454 7.89393C5.45454 9.58079 5.44443 11.9495 5.42423 15Z" fill="#0F3B53"/>
</g>
<defs>
<clipPath id="clip0_1311_56">
<rect width="15.6969" height="15" fill="white"/>
</clipPath>
</defs>
</svg>
