<svg width="102" height="30" viewBox="0 0 102 30" fill="none" xmlns="http://www.w3.org/2000/svg">
<path d="M25.3184 12.1614H32.9213C36.1213 12.1614 38.4791 14.7271 38.4791 18.1971C38.4791 20.3719 37.4686 22.2045 35.9048 23.2065L38.8882 29.7555H35.7605L33.2342 24.2085C33.0659 24.2329 32.8974 24.2329 32.729 24.2329H28.1576V29.7555H25.3185V12.1614H25.3184ZM28.1574 21.3494H32.5363C34.437 21.3494 35.6641 20.1031 35.6641 18.1971C35.6641 16.2911 34.4611 15.0448 32.5603 15.0448H28.1573V21.3494H28.1574Z" fill="#263B4D"/>
<path d="M40.8367 17.5375C41.4622 17.5375 41.8953 17.1221 41.8953 16.4868V14.2629H44.7344V17.5374H47.7899V20.4208H44.7344V24.7949C44.7344 26.7254 45.023 27.1897 46.178 27.2141C46.7073 27.2141 47.1885 27.1408 47.7899 27.0187V29.7555C47.2366 29.9021 46.4427 29.9999 45.793 29.9999C43.05 29.9999 41.8952 28.7292 41.8952 25.6502V20.4209H39.6816V17.5375H40.8366H40.8367Z" fill="#263B4D"/>
<path d="M50.0518 29.7554V17.5374H52.8908V18.9303C53.7089 17.9527 54.9601 17.293 56.5 17.293V20.0298C56.4038 20.0054 56.2835 20.0054 56.1872 20.0054C54.3827 20.0054 52.8908 21.3004 52.8908 23.1577V29.7554H50.0518Z" fill="#263B4D"/>
<path d="M63.0929 17.2931C64.6086 17.2931 66.0041 18.0995 66.7981 19.0525V17.5374H69.6372V29.7554H66.7981V28.1915C66.0041 29.1934 64.6086 29.9998 63.0929 29.9998C59.6522 29.9998 57.126 27.1407 57.126 23.6464C57.126 20.1521 59.6522 17.293 63.0929 17.293V17.2931ZM59.965 23.6465C59.965 25.5525 61.5048 27.1164 63.3815 27.1164C65.2582 27.1164 66.798 25.5525 66.798 23.6465C66.798 21.7405 65.2582 20.1767 63.3815 20.1767C61.5048 20.1767 59.965 21.7405 59.965 23.6465Z" fill="#263B4D"/>
<path d="M71.2246 17.5374H74.3043L77.8172 26.2366L81.3059 17.5374H84.3857L79.4052 29.7554H76.2293L71.2248 17.5374H71.2246Z" fill="#263B4D"/>
<path d="M90.9535 17.2931C94.37 17.2931 96.6799 19.8345 96.7039 23.4755C96.7039 23.9398 96.6318 24.453 96.5837 24.9417H87.6332C88.1144 26.4567 89.4618 27.3853 91.2424 27.3853C92.3972 27.3853 93.5041 26.9698 94.2258 26.1634L96.0303 27.996C94.8755 29.2911 93.1912 29.9998 91.2184 29.9998C87.5853 29.9998 84.8184 27.2384 84.8184 23.6464C84.8184 20.0544 87.465 17.293 90.9536 17.293L90.9535 17.2931ZM87.5851 22.6935H94.0332C93.7926 20.9585 92.5175 19.8834 90.9055 19.8834C89.2936 19.8834 87.8258 21.0074 87.5853 22.6935H87.5851Z" fill="#263B4D"/>
<path d="M101.613 29.7555H98.7734V11.4285H101.613V29.7555Z" fill="#263B4D"/>
<path d="M18.2857 0V6.42857L3.51648 21.4286L0 17.8571V11.4286L3.51648 15L18.2857 0Z" fill="#3375BB"/>
<path d="M18.2855 30.0001H11.9558L8.79102 26.7858L11.9558 23.5715L18.2855 30.0001Z" fill="#3375BB"/>
<path d="M18.2857 8.57153V15.0001L3.51648 30.0001L0 26.4287V20.0001L3.51648 23.5715L18.2857 8.57153Z" fill="#04B5C2"/>
</svg>
