<svg width="1000" height="334" viewBox="0 0 1000 334" fill="none" xmlns="http://www.w3.org/2000/svg">
<g clip-path="url(#clip0_1125_222)">
<path d="M209.627 79.4202H288.387C321.527 79.4202 345.974 105.58 345.974 140.974C345.974 163.167 335.514 181.847 319.307 192.074L350.214 258.867H317.787L291.634 202.32C289.894 202.536 288.14 202.623 286.387 202.58H239.054V258.92H209.627V79.4202ZM239.027 173.16H284.394C304.087 173.16 316.807 160.44 316.807 141.007C316.807 121.574 304.347 108.853 284.654 108.853H239.027V173.16Z" fill="#0F3B53"/>
<path d="M370.394 134.254C376.88 134.254 381.367 130.027 381.367 123.54V100.874H410.774V134.254H442.434V163.654H410.774V208.26C410.774 227.954 413.754 232.674 425.72 232.927C431.194 232.927 436.174 232.174 442.387 230.927V258.847C435.618 260.476 428.683 261.313 421.72 261.34C393.307 261.34 381.34 248.394 381.34 216.967V163.654H358.4V134.254H370.394Z" fill="#0F3B53"/>
<path d="M465.867 258.9V134.233H495.267V148.427C503.754 138.467 516.701 131.76 532.661 131.76V159.68C531.593 159.463 530.503 159.376 529.414 159.42C510.747 159.42 495.267 172.627 495.267 191.573V258.867H465.867V258.9Z" fill="#0F3B53"/>
<path d="M600.933 131.767C616.633 131.767 631.086 139.993 639.313 149.727V134.253H668.747V258.92H639.34V242.94C631.12 253.16 616.673 261.387 600.96 261.387C565.333 261.387 539.146 232.22 539.146 196.594C539.146 160.967 565.307 131.767 600.933 131.767ZM568.547 196.594C568.547 203.595 570.623 210.439 574.512 216.261C578.402 222.082 583.931 226.62 590.399 229.299C596.868 231.978 603.986 232.679 610.853 231.313C617.72 229.947 624.027 226.576 628.978 221.625C633.929 216.674 637.3 210.367 638.666 203.5C640.032 196.633 639.331 189.515 636.652 183.047C633.973 176.578 629.435 171.049 623.614 167.159C617.792 163.27 610.948 161.194 603.947 161.194C594.57 161.232 585.588 164.974 578.958 171.605C572.327 178.235 568.585 187.217 568.547 196.594Z" fill="#0F3B53"/>
<path d="M685.193 134.253H717.12L753.5 222.987L789.647 134.32H821.567L769.98 258.987H737.073L685.193 134.32V134.253Z" fill="#0F3B53"/>
<path d="M889.579 131.767C924.979 131.767 948.913 157.687 949.139 194.827C949.139 199.547 948.386 204.787 947.893 209.773H855.159C860.139 225.24 874.099 234.714 892.553 234.714C904.513 234.714 915.986 230.48 923.459 222.253L942.126 240.92C930.166 254.127 912.726 261.367 892.279 261.367C854.653 261.367 825.973 233.213 825.973 196.573C825.973 159.933 853.406 131.747 889.553 131.747L889.579 131.767ZM854.679 186.86H921.473C918.979 169.16 905.773 158.193 889.059 158.193C872.346 158.193 857.166 169.667 854.679 186.86Z" fill="#0F3B53"/>
<path d="M1000 258.9H970.574V71.9468H1000V258.9Z" fill="#0F3B53"/>
<path d="M153.7 91.2666V164.987L120 199.82L91.0264 229.787C85.2726 236.021 81.0797 243.531 78.792 251.7C76.5043 259.869 76.1871 268.464 77.8664 276.78C79.6076 285.506 83.5165 293.654 89.2331 300.473C88.2397 299.44 57.0931 266.16 57.0931 266.16C56.498 265.561 55.935 264.931 55.4064 264.273C52.72 261.103 50.4298 257.617 48.5864 253.893L48.5198 253.827C38.6264 233.993 41.4664 208.76 57.0931 192.1L120 126.447L153.7 91.2666Z" fill="#00B1D2"/>
<path d="M153.7 0V73.9067L120 109.113L48.2801 184.047C42.5241 190.281 38.3283 197.791 36.0373 205.961C33.7462 214.132 33.425 222.728 35.1001 231.047C36.8476 239.772 40.7661 247.916 46.4935 254.727C45.4868 253.693 14.3534 220.42 14.3534 220.42C13.7524 219.823 13.1849 219.193 12.6535 218.533C9.97224 215.358 7.6804 211.873 5.82678 208.153L5.77345 208.087C-4.11989 188.267 -1.29322 163.02 14.3468 146.36L120 35.3933L153.7 0Z" fill="#0084BD"/>
<path d="M120 259.247V333.333L97.773 309.553C95.213 306.447 91.2463 299.553 91.2463 299.553C81.353 279.727 84.193 254.493 99.8196 237.833L99.8863 237.773L120 259.247Z" fill="#0084BD"/>
</g>
<defs>
<clipPath id="clip0_1125_222">
<rect width="1000" height="333.333" fill="white"/>
</clipPath>
</defs>
</svg>
